<svg width="256" height="256" viewBox="0 0 256 256" fill="none" xmlns="http://www.w3.org/2000/svg">
<rect width="256" height="256" fill="white"/>
<path fill-rule="evenodd" clip-rule="evenodd" d="M106.211 125.81H106.282V125.713L106.211 125.81Z" fill="white"/>
<path fill-rule="evenodd" clip-rule="evenodd" d="M237.657 128.001C237.657 188.58 188.548 237.689 127.969 237.689C111.229 237.689 95.3639 233.939 81.1695 227.233L113.288 206.975L116.765 204.783L140.777 189.638C142.172 190.451 143.702 190.995 145.282 191.25C146.004 191.367 146.736 191.423 147.471 191.418C148.202 191.412 148.936 191.345 149.665 191.215C151.276 190.927 152.859 190.33 154.329 189.403C157.335 187.507 159.304 184.586 160.067 181.382C160.238 180.662 160.349 179.929 160.397 179.189C160.444 178.461 160.43 177.728 160.355 176.997C160.154 175.063 159.516 173.144 158.409 171.388C156.371 168.157 153.15 166.124 149.665 165.499C148.942 165.369 148.208 165.3 147.471 165.293C146.742 165.286 146.01 165.34 145.282 165.457C143.594 165.729 141.931 166.338 140.394 167.308C136.872 169.529 134.775 173.155 134.37 176.997C134.294 177.723 134.278 178.456 134.324 179.189C134.329 179.27 134.335 179.351 134.342 179.433L131.252 181.382L110.658 194.37L108.464 195.754L106.282 197.13L94.1484 204.783L90.6723 206.975L69.1089 220.576C41.271 202.839 21.9716 172.891 18.7559 138.276L67.2751 107.675L69.4674 106.292L72.1512 104.599L75.6274 102.407L79.1015 100.216L101.484 86.0989C102.965 86.9617 104.598 87.5213 106.282 87.7546C107.003 87.8545 107.733 87.8946 108.464 87.8732C109.196 87.8517 109.93 87.7684 110.658 87.6215C112.17 87.316 113.654 86.7354 115.036 85.8633C117.674 84.1995 119.513 81.7471 120.44 79.0061C120.681 78.2919 120.861 77.5582 120.976 76.8136C121.088 76.0904 121.14 75.3569 121.13 74.6214C121.098 72.2992 120.446 69.9564 119.116 67.8482C117.134 64.7056 114.033 62.697 110.658 62.0139C109.936 61.8679 109.202 61.7824 108.464 61.7594C107.738 61.7368 107.008 61.7745 106.282 61.8742C104.494 62.12 102.727 62.7426 101.101 63.7685C97.2257 66.2126 95.075 70.3579 95.0073 74.6207C95.0006 75.0442 95.0144 75.4689 95.0491 75.8931L93.5897 76.8136L90.1135 79.0061L69.4674 92.0277L67.2751 93.4105L18.3433 124.272C20.3094 65.4198 68.6381 18.3135 127.969 18.3135C164.512 18.3135 196.881 36.1833 216.815 63.6612L188.665 81.2968L186.471 82.6714L158.468 100.215L154.969 102.408L151.469 104.6L149.665 105.73L147.471 107.105L145.282 108.476L123.362 122.209C119.557 119.992 114.749 119.777 110.658 121.953C110.371 122.105 110.089 122.269 109.81 122.444C109.335 122.744 108.886 123.069 108.464 123.417C107.632 124.101 106.903 124.874 106.282 125.711V125.809H106.211C105.708 126.501 105.279 127.236 104.925 128.002C104.598 128.709 104.335 129.443 104.14 130.194C103.26 133.566 103.725 137.279 105.73 140.459C105.906 140.738 106.09 141.007 106.282 141.267C106.925 142.137 107.66 142.906 108.464 143.57C109.149 144.135 109.885 144.624 110.658 145.033C114.656 147.149 119.644 147.126 123.745 144.539C128.005 141.852 130.181 137.109 129.797 132.415L133.342 130.194L136.841 128.001L140.34 125.809L145.282 122.713L147.471 121.342L149.665 119.967L174.194 104.6L177.694 102.408L181.193 100.215L186.471 96.9085L188.665 95.534L223.353 73.8021C232.457 89.7892 237.657 108.288 237.657 128.001Z" fill="#2161AC"/>
<path fill-rule="evenodd" clip-rule="evenodd" d="M108.464 51.2199H69.4674V76.8136H93.5897L95.0491 75.8931C95.0144 75.4689 95.0006 75.0442 95.0073 74.6207C95.075 70.3579 97.2257 66.2126 101.101 63.7685C102.727 62.7426 104.494 62.12 106.282 61.8742C107.008 61.7745 107.738 61.7368 108.464 61.7594V51.2199Z" fill="#549BEF"/>
<path fill-rule="evenodd" clip-rule="evenodd" d="M69.4674 51.2199H108.464V61.7594C109.202 61.7824 109.936 61.8679 110.658 62.0139V49.0275H67.2751V79.0061H90.1135L93.5897 76.8136H69.4674V51.2199Z" fill="#A0CBFD"/>
<path fill-rule="evenodd" clip-rule="evenodd" d="M93.5897 76.8136H69.4674V92.0277L90.1135 79.0061L93.5897 76.8136ZM106.282 87.7546C104.598 87.5213 102.965 86.9617 101.484 86.0989L79.1015 100.216L75.6274 102.407H108.464V87.8732C107.733 87.8946 107.003 87.8545 106.282 87.7546Z" fill="#4283CE"/>
<path fill-rule="evenodd" clip-rule="evenodd" d="M95.0073 74.6207H67.2751V93.4105L69.4674 92.0277V76.8136H93.5897L95.0491 75.8931C95.0144 75.4689 95.0006 75.0442 95.0073 74.6207ZM108.464 87.8732V102.407H75.6274L72.1512 104.599H110.658V87.6215C109.93 87.7684 109.196 87.8517 108.464 87.8732Z" fill="#A0CBFD"/>
<path fill-rule="evenodd" clip-rule="evenodd" d="M69.4674 128.002V106.292L72.1512 104.599L75.6274 102.407H108.464V123.417C107.632 124.101 106.903 124.874 106.282 125.711V125.809H106.211C105.708 126.501 105.279 127.236 104.925 128.002H69.4674Z" fill="#2161AC"/>
<path fill-rule="evenodd" clip-rule="evenodd" d="M67.2751 130.194V107.675L69.4674 106.292V128.002H104.925C104.598 128.709 104.335 129.443 104.14 130.194L67.2751 130.194ZM79.1015 100.216L75.6274 102.407H108.464V123.417C108.886 123.069 109.335 122.744 109.81 122.444C110.089 122.269 110.371 122.105 110.658 121.953V100.216H79.1015Z" fill="#A0CBFD"/>
<path fill-rule="evenodd" clip-rule="evenodd" d="M108.464 143.57C107.66 142.906 106.925 142.137 106.282 141.267C106.09 141.007 105.906 140.738 105.73 140.459C103.725 137.279 103.26 133.566 104.14 130.194C104.335 129.443 104.598 128.709 104.925 128.002H69.4674V153.595H108.464V143.57Z" fill="#4283CE"/>
<path fill-rule="evenodd" clip-rule="evenodd" d="M104.925 128.002C105.279 127.236 105.708 126.501 106.211 125.809H67.2751V155.788H110.658V145.033C109.885 144.624 109.149 144.135 108.464 143.57V153.595H69.4674V128.002H104.925Z" fill="#A0CBFD"/>
<path d="M69.4674 153.595H108.464V179.189H69.4674V153.595Z" fill="#2161AC"/>
<path d="M108.464 153.595H69.4674V179.189H108.464V153.595ZM110.658 181.382H67.2751V151.403H110.658V181.382Z" fill="#A0CBFD"/>
<path fill-rule="evenodd" clip-rule="evenodd" d="M147.471 51.2199H108.464V61.7594C109.202 61.7824 109.936 61.8679 110.658 62.0139C114.033 62.697 117.134 64.7056 119.116 67.8482C120.446 69.9564 121.098 72.2992 121.13 74.6214C121.14 75.3569 121.088 76.0904 120.976 76.8136H147.471V51.2199Z" fill="#2161AC"/>
<path fill-rule="evenodd" clip-rule="evenodd" d="M108.464 51.2199H147.471V76.8136H120.976C120.861 77.5582 120.681 78.2919 120.44 79.0061H149.665V49.0275H106.282V61.8742C107.008 61.7745 107.738 61.7368 108.464 61.7594V51.2199Z" fill="#A0CBFD"/>
<path fill-rule="evenodd" clip-rule="evenodd" d="M108.464 87.8732V102.407L147.471 102.408V76.8136H120.976C120.861 77.5582 120.681 78.2919 120.44 79.0061C119.513 81.7471 117.674 84.1995 115.036 85.8633C113.654 86.7354 112.17 87.316 110.658 87.6215C109.93 87.7684 109.196 87.8517 108.464 87.8732Z" fill="#4283CE"/>
<path fill-rule="evenodd" clip-rule="evenodd" d="M106.282 87.7546V104.6H149.665V74.6214H121.13C121.14 75.3569 121.088 76.0904 120.976 76.8136H147.471V102.408L108.464 102.407V87.8732C107.733 87.8946 107.003 87.8545 106.282 87.7546Z" fill="#A0CBFD"/>
<path fill-rule="evenodd" clip-rule="evenodd" d="M147.471 107.105V102.408L108.464 102.407V123.417C108.886 123.069 109.335 122.744 109.81 122.444C110.089 122.269 110.371 122.105 110.658 121.953C114.749 119.777 119.557 119.992 123.362 122.209L145.282 108.476L147.471 107.105ZM145.282 122.713L147.471 121.342V128.001L136.841 128.001L140.34 125.809L145.282 122.713Z" fill="#4283CE"/>
<path fill-rule="evenodd" clip-rule="evenodd" d="M149.665 105.73V100.215H106.282L106.282 125.711C106.903 124.874 107.632 124.101 108.464 123.417V102.407L147.471 102.408V107.105L149.665 105.73ZM136.841 128.001L133.342 130.194H149.665V119.967L147.471 121.342V128.001L136.841 128.001Z" fill="#A0CBFD"/>
<path fill-rule="evenodd" clip-rule="evenodd" d="M136.841 128.001L133.342 130.194L129.797 132.415C130.181 137.109 128.005 141.852 123.745 144.539C119.644 147.126 114.656 147.149 110.658 145.033C109.885 144.624 109.149 144.135 108.464 143.57V153.595H147.471L147.471 128.001L136.841 128.001Z" fill="#4283CE"/>
<path fill-rule="evenodd" clip-rule="evenodd" d="M106.282 141.267V155.788H149.665V125.809H140.34L136.841 128.001L147.471 128.001L147.471 153.595H108.464V143.57C107.66 142.906 106.925 142.137 106.282 141.267Z" fill="#A0CBFD"/>
<path fill-rule="evenodd" clip-rule="evenodd" d="M147.471 153.595H108.464V179.189H134.324C134.278 178.456 134.294 177.723 134.37 176.997C134.775 173.155 136.872 169.529 140.394 167.308C141.931 166.338 143.594 165.729 145.282 165.457C146.01 165.34 146.742 165.286 147.471 165.293V153.595Z" fill="#2161AC"/>
<path fill-rule="evenodd" clip-rule="evenodd" d="M108.464 153.595H147.471V165.293C148.208 165.3 148.942 165.369 149.665 165.499V151.403H106.282V181.382H131.252L134.342 179.433C134.335 179.351 134.329 179.27 134.324 179.189H108.464V153.595Z" fill="#A0CBFD"/>
<path d="M147.471 51.2199H186.471V76.8136H147.471V51.2199Z" fill="#2161AC"/>
<path d="M186.471 51.2199H147.471V76.8136H186.471V51.2199ZM188.665 79.0061H145.282V49.0275H188.665V79.0061Z" fill="#A0CBFD"/>
<path fill-rule="evenodd" clip-rule="evenodd" d="M186.471 76.8136H147.471V102.408H154.969L158.468 100.215L186.471 82.6714V76.8136ZM177.694 102.408H186.471V96.9085L181.193 100.215L177.694 102.408Z" fill="#2161AC"/>
<path fill-rule="evenodd" clip-rule="evenodd" d="M188.665 81.2968V74.6214H145.282V104.6H151.469L154.969 102.408H147.471V76.8136H186.471V82.6714L188.665 81.2968ZM177.694 102.408L174.194 104.6H188.665V95.534L186.471 96.9085V102.408H177.694Z" fill="#A0CBFD"/>
<path fill-rule="evenodd" clip-rule="evenodd" d="M154.969 102.408H147.471V107.105L149.665 105.73L151.469 104.6L154.969 102.408ZM147.471 121.342V128.001H186.471V102.408H177.694L174.194 104.6L149.665 119.967L147.471 121.342Z" fill="#4283CE"/>
<path fill-rule="evenodd" clip-rule="evenodd" d="M158.468 100.215H145.282V108.476L147.471 107.105V102.408H154.969L158.468 100.215ZM147.471 121.342L145.282 122.713V130.194H188.665V100.215H181.193L177.694 102.408H186.471V128.001H147.471V121.342Z" fill="#A0CBFD"/>
<path d="M147.471 128.001H186.471L186.471 153.595H147.471L147.471 128.001Z" fill="#4283CE"/>
<path d="M186.471 128.001H147.471L147.471 153.595H186.471L186.471 128.001ZM188.665 155.788H145.282V125.809H188.665V155.788Z" fill="#A0CBFD"/>
<path fill-rule="evenodd" clip-rule="evenodd" d="M186.471 153.595H147.471V165.293C148.208 165.3 148.942 165.369 149.665 165.499C153.15 166.124 156.371 168.157 158.409 171.388C159.516 173.144 160.154 175.063 160.355 176.997C160.43 177.728 160.444 178.461 160.397 179.189H186.471V153.595Z" fill="#2161AC"/>
<path fill-rule="evenodd" clip-rule="evenodd" d="M147.471 153.595H186.471V179.189H160.397C160.349 179.929 160.238 180.662 160.067 181.382H188.665V151.403H145.282V165.457C146.01 165.34 146.742 165.286 147.471 165.293V153.595Z" fill="#A0CBFD"/>
<path fill-rule="evenodd" clip-rule="evenodd" d="M108.464 179.189H69.4674V204.783H94.1484L106.282 197.13L108.464 195.754V179.189Z" fill="#2161AC"/>
<path fill-rule="evenodd" clip-rule="evenodd" d="M108.464 179.189H69.4674V204.783H94.1484L90.6723 206.975H67.2751V176.997H110.658V194.37L108.464 195.754V179.189Z" fill="#A0CBFD"/>
<path fill-rule="evenodd" clip-rule="evenodd" d="M134.324 179.189H108.464V195.754L110.658 194.37L131.252 181.382L134.342 179.433C134.335 179.351 134.329 179.27 134.324 179.189ZM145.282 191.25C143.702 190.995 142.172 190.451 140.777 189.638L116.765 204.783H147.471V191.418C146.736 191.423 146.004 191.367 145.282 191.25Z" fill="#2161AC"/>
<path fill-rule="evenodd" clip-rule="evenodd" d="M134.324 179.189C134.278 178.456 134.294 177.723 134.37 176.997H106.282V197.13L108.464 195.754V179.189H134.324ZM147.471 191.418C148.202 191.412 148.936 191.345 149.665 191.215V206.975H113.288L116.765 204.783H147.471V191.418Z" fill="#A0CBFD"/>
<path fill-rule="evenodd" clip-rule="evenodd" d="M149.665 191.215C148.936 191.345 148.202 191.412 147.471 191.418V204.783H186.471V179.189H160.397C160.349 179.929 160.238 180.662 160.067 181.382C159.304 184.586 157.335 187.507 154.329 189.403C152.859 190.33 151.276 190.927 149.665 191.215Z" fill="#2161AC"/>
<path fill-rule="evenodd" clip-rule="evenodd" d="M147.471 191.418C146.736 191.423 146.004 191.367 145.282 191.25V206.975H188.665V176.997H160.355C160.43 177.728 160.444 178.461 160.397 179.189H186.471V204.783H147.471V191.418Z" fill="#A0CBFD"/>
</svg>
