<svg id="Layer_1" data-name="Layer 1" xmlns="http://www.w3.org/2000/svg" viewBox="0 0 500 500"><defs><style>.cls-1{fill:#fff;}.cls-2{fill:none;stroke:#fff;stroke-miterlimit:10;stroke-width:6.72px;}</style></defs><title>White Color - Icon</title><path class="cls-1" d="M311.69,411c1.06,10.54-4.22,21.08-13.7,27.41a29.13,29.13,0,1,1,0-50.61L493,264.42c3.16-45.34-6.33-91.72-30.57-132.84l-233,147.6c1,10.54-4.22,21.08-13.71,27.41a29.13,29.13,0,1,1,0-50.61l233-147.6c-27.41-39-65.37-67.47-107.54-84.34l-195,123.35c1.05,10.55-4.22,21.09-13.71,27.41a29.13,29.13,0,1,1,0-50.6l175-110.7C245.27-1.26,177.8,7.17,119.81,44.07A244.11,244.11,0,0,0,10.16,292.88L223.13,159c-1-10.54,4.22-21.09,13.71-27.41a29.13,29.13,0,1,1,0,50.6L14.38,320.3c6.33,20,14.76,40.06,27.41,59A214.52,214.52,0,0,0,84,428.89L304.31,289.72c-1.05-10.54,4.22-21.08,13.71-27.41a29.13,29.13,0,1,1,0,50.61l-211.91,135a245.28,245.28,0,0,0,272,8.43c58-36.9,94.89-93.83,108.59-156Z"/><rect class="cls-2" x="-1552.64" y="-132.42" width="4698" height="1251.62"/></svg>